<svg width="44" height="384" viewBox="0 0 44 384" fill="none" xmlns="http://www.w3.org/2000/svg">
<g opacity="0.5">
<path d="M36.6559 364.008L41.4428 357.027L36.6559 350.046L4.34415 350.046L-0.442774 357.027L4.34415 364.008L36.6559 364.008Z" stroke="#EAC842" stroke-width="1.5"/>
<path d="M27.4809 340.871L20.5 336.084L13.519 340.871L13.519 373.183L20.5 377.97L27.4809 373.183L27.4809 340.871Z" stroke="#EAC842" stroke-width="1.5"/>
<path d="M36.6618 350.639L35.1104 342.318L26.7892 340.766L3.94139 363.614L5.49279 371.935L13.8139 373.487L36.6618 350.639Z" stroke="#EAC842" stroke-width="1.5"/>
<path d="M14.1116 340.866L5.79042 342.417L4.23902 350.738L27.0869 373.586L35.408 372.035L36.9594 363.714L14.1116 340.866Z" stroke="#EAC842" stroke-width="1.5"/>
<path d="M36.6559 322.123L41.4428 315.142L36.6559 308.161L4.34415 308.161L-0.442774 315.142L4.34415 322.123L36.6559 322.123Z" stroke="#EAC842" stroke-width="1.5"/>
<path d="M27.4809 298.986L20.5 294.199L13.519 298.986L13.519 331.297L20.5 336.084L27.4809 331.297L27.4809 298.986Z" stroke="#EAC842" stroke-width="1.5"/>
<path d="M36.6618 308.753L35.1104 300.432L26.7892 298.881L3.94139 321.728L5.49279 330.049L13.8139 331.601L36.6618 308.753Z" stroke="#EAC842" stroke-width="1.5"/>
<path d="M14.1116 298.98L5.79042 300.531L4.23902 308.853L27.0869 331.7L35.408 330.149L36.9594 321.828L14.1116 298.98Z" stroke="#EAC842" stroke-width="1.5"/>
<path d="M36.6559 280.237L41.4428 273.256L36.6559 266.275L4.34415 266.275L-0.442774 273.256L4.34415 280.237L36.6559 280.237Z" stroke="#EAC842" stroke-width="1.5"/>
<path d="M27.4809 257.1L20.5 252.313L13.519 257.1L13.519 289.412L20.5 294.199L27.4809 289.412L27.4809 257.1Z" stroke="#EAC842" stroke-width="1.5"/>
<path d="M36.6618 266.868L35.1104 258.547L26.7892 256.995L3.94139 279.843L5.49279 288.164L13.8139 289.716L36.6618 266.868Z" stroke="#EAC842" stroke-width="1.5"/>
<path d="M14.1116 257.095L5.79042 258.646L4.23902 266.967L27.0869 289.815L35.408 288.264L36.9594 279.943L14.1116 257.095Z" stroke="#EAC842" stroke-width="1.5"/>
<path d="M36.6559 238.352L41.4428 231.371L36.6559 224.39L4.34415 224.39L-0.442774 231.371L4.34415 238.352L36.6559 238.352Z" stroke="#EAC842" stroke-width="1.5"/>
<path d="M27.4809 215.215L20.5 210.428L13.519 215.215L13.519 247.526L20.5 252.313L27.4809 247.526L27.4809 215.215Z" stroke="#EAC842" stroke-width="1.5"/>
<path d="M36.6618 224.982L35.1104 216.661L26.7892 215.11L3.94139 237.957L5.49279 246.278L13.8139 247.83L36.6618 224.982Z" stroke="#EAC842" stroke-width="1.5"/>
<path d="M14.1116 215.209L5.79042 216.76L4.23902 225.082L27.0869 247.929L35.408 246.378L36.9594 238.057L14.1116 215.209Z" stroke="#EAC842" stroke-width="1.5"/>
<path d="M36.6559 196.466L41.4428 189.485L36.6559 182.504L4.34415 182.504L-0.442774 189.485L4.34415 196.466L36.6559 196.466Z" stroke="#EAC842" stroke-width="1.5"/>
<path d="M27.4809 173.329L20.5 168.542L13.519 173.329L13.519 205.641L20.5 210.428L27.4809 205.641L27.4809 173.329Z" stroke="#EAC842" stroke-width="1.5"/>
<path d="M36.6618 183.096L35.1104 174.775L26.7892 173.224L3.94139 196.072L5.49279 204.393L13.8139 205.944L36.6618 183.096Z" stroke="#EAC842" stroke-width="1.5"/>
<path d="M14.1116 173.323L5.79042 174.875L4.23902 183.196L27.0869 206.044L35.408 204.492L36.9594 196.171L14.1116 173.323Z" stroke="#EAC842" stroke-width="1.5"/>
<path d="M36.6559 154.581L41.4428 147.6L36.6559 140.619L4.34415 140.619L-0.442774 147.6L4.34415 154.581L36.6559 154.581Z" stroke="#EAC842" stroke-width="1.5"/>
<path d="M27.4809 131.444L20.5 126.657L13.519 131.444L13.519 163.755L20.5 168.542L27.4809 163.755L27.4809 131.444Z" stroke="#EAC842" stroke-width="1.5"/>
<path d="M36.6618 141.211L35.1104 132.89L26.7892 131.339L3.94139 154.186L5.49279 162.507L13.8139 164.059L36.6618 141.211Z" stroke="#EAC842" stroke-width="1.5"/>
<path d="M14.1116 131.438L5.79042 132.989L4.23902 141.311L27.0869 164.158L35.408 162.607L36.9594 154.286L14.1116 131.438Z" stroke="#EAC842" stroke-width="1.5"/>
<path d="M36.6559 112.695L41.4428 105.714L36.6559 98.733L4.34415 98.733L-0.442774 105.714L4.34415 112.695L36.6559 112.695Z" stroke="#EAC842" stroke-width="1.5"/>
<path d="M27.4809 89.5579L20.5 84.771L13.519 89.5579L13.519 121.87L20.5 126.657L27.4809 121.87L27.4809 89.5579Z" stroke="#EAC842" stroke-width="1.5"/>
<path d="M36.6618 99.3253L35.1104 91.0042L26.7892 89.4528L3.94139 112.301L5.49279 120.622L13.8139 122.173L36.6618 99.3253Z" stroke="#EAC842" stroke-width="1.5"/>
<path d="M14.1116 89.5523L5.79042 91.1037L4.23902 99.4249L27.0869 122.273L35.408 120.721L36.9594 112.4L14.1116 89.5523Z" stroke="#EAC842" stroke-width="1.5"/>
<path d="M36.6559 70.8091L41.4428 63.8282L36.6559 56.8472L4.34415 56.8472L-0.442774 63.8281L4.34415 70.8091L36.6559 70.8091Z" stroke="#EAC842" stroke-width="1.5"/>
<path d="M27.4809 47.6722L20.5 42.8853L13.519 47.6722L13.519 79.9839L20.5 84.7708L27.4809 79.9839L27.4809 47.6722Z" stroke="#EAC842" stroke-width="1.5"/>
<path d="M36.6618 57.4396L35.1104 49.1184L26.7892 47.567L3.94139 70.4149L5.49279 78.736L13.8139 80.2874L36.6618 57.4396Z" stroke="#EAC842" stroke-width="1.5"/>
<path d="M14.1116 47.6666L5.79042 49.218L4.23902 57.5391L27.0869 80.387L35.408 78.8356L36.9594 70.5145L14.1116 47.6666Z" stroke="#EAC842" stroke-width="1.5"/>
<path d="M36.6559 28.9238L41.4428 21.9429L36.6559 14.962L4.34415 14.962L-0.442774 21.9429L4.34415 28.9238L36.6559 28.9238Z" stroke="#EAC842" stroke-width="1.5"/>
<path d="M27.4809 5.78692L20.5 1L13.519 5.78692L13.519 38.0987L20.5 42.8856L27.4809 38.0987L27.4809 5.78692Z" stroke="#EAC842" stroke-width="1.5"/>
<path d="M36.6618 15.5543L35.1104 7.23317L26.7892 5.68177L3.94139 28.5296L5.49279 36.8507L13.8139 38.4021L36.6618 15.5543Z" stroke="#EAC842" stroke-width="1.5"/>
<path d="M14.1116 5.78135L5.79042 7.33275L4.23902 15.6539L27.0869 38.5017L35.408 36.9503L36.9594 28.6292L14.1116 5.78135Z" stroke="#EAC842" stroke-width="1.5"/>
</g>
</svg>
