<svg width="131" height="139" viewBox="0 0 131 139" fill="none" xmlns="http://www.w3.org/2000/svg">
<path d="M-35.4516 42.1554L-33.9002 33.8342L-25.579 32.2828L-2.73118 55.1307L-4.28258 63.4518L-12.6037 65.0032L-35.4516 42.1554Z" stroke="#5FCE6C" stroke-width="1.5"/>
<path d="M-12.6037 32.2823L-4.28261 33.8337L-2.73121 42.1549L-25.5791 65.0027L-33.9002 63.4513L-35.4516 55.1302L-12.6037 32.2823Z" stroke="#5FCE6C" stroke-width="1.5"/>
<path d="M-3.14605 41.7314L1.64087 48.7124L-3.14606 55.6933L-35.4578 55.6933L-40.2447 48.7124L-35.4578 41.7314L-3.14605 41.7314Z" stroke="#5FCE6C" stroke-width="1.5"/>
<path d="M-5.83401 12.5382L-4.28261 4.21706L4.03852 2.66566L26.8864 25.5135L25.335 33.8346L17.0138 35.386L-5.83401 12.5382Z" stroke="#5FCE6C" stroke-width="1.5"/>
<path d="M17.0138 2.66514L25.3349 4.21654L26.8863 12.5377L4.03849 35.3855L-4.28264 33.8341L-5.83403 25.513L17.0138 2.66514Z" stroke="#5FCE6C" stroke-width="1.5"/>
<path d="M3.61536 3.07989L10.5963 -1.70703L17.5772 3.07989L17.5772 35.3916L10.5963 40.1786L3.61536 35.3916L3.61536 3.07989Z" stroke="#5FCE6C" stroke-width="1.5"/>
<path d="M26.4715 12.1143L31.2584 19.0952L26.4715 26.0761L-5.84024 26.0761L-10.6272 19.0952L-5.84024 12.1143L26.4715 12.1143Z" stroke="#5FCE6C" stroke-width="1.5"/>
<path d="M23.7837 -17.08L25.3351 -25.4011L33.6562 -26.9525L56.504 -4.10466L54.9526 4.21647L46.6315 5.76787L23.7837 -17.08Z" stroke="#5FCE6C" stroke-width="1.5"/>
<path d="M46.6315 -26.953L54.9526 -25.4016L56.504 -17.0805L33.6562 5.76735L25.335 4.21595L23.7836 -4.10518L46.6315 -26.953Z" stroke="#5FCE6C" stroke-width="1.5"/>
<path d="M33.233 -26.5383L40.214 -31.3252L47.1949 -26.5383L47.1949 5.77346L40.214 10.5604L33.233 5.77346L33.233 -26.5383Z" stroke="#5FCE6C" stroke-width="1.5"/>
<path d="M-20.6427 86.5821L-19.0913 78.261L-10.7702 76.7096L12.0777 99.5575L10.5263 107.879L2.20513 109.43L-20.6427 86.5821Z" stroke="#5FCE6C" stroke-width="1.5"/>
<path d="M2.2051 76.7091L10.5262 78.2605L12.0776 86.5816L-10.7702 109.429L-19.0914 107.878L-20.6428 99.5569L2.2051 76.7091Z" stroke="#5FCE6C" stroke-width="1.5"/>
<path d="M-11.1934 77.1238L-4.21243 72.3369L2.7685 77.1238L2.7685 109.436L-4.21243 114.222L-11.1934 109.436L-11.1934 77.1238Z" stroke="#5FCE6C" stroke-width="1.5"/>
<path d="M11.6628 86.1582L16.4497 93.1391L11.6628 100.12L-20.649 100.12L-25.4359 93.1391L-20.649 86.1582L11.6628 86.1582Z" stroke="#5FCE6C" stroke-width="1.5"/>
<path d="M8.97483 56.964L10.5262 48.6428L18.8474 47.0914L41.6952 69.9393L40.1438 78.2604L31.8227 79.8118L8.97483 56.964Z" stroke="#5FCE6C" stroke-width="1.5"/>
<path d="M31.8227 47.0909L40.1438 48.6423L41.6952 56.9634L18.8473 79.8113L10.5262 78.2599L8.9748 69.9388L31.8227 47.0909Z" stroke="#5FCE6C" stroke-width="1.5"/>
<path d="M18.4242 47.5057L25.4051 42.7187L32.3861 47.5057L32.3861 79.8174L25.4051 84.6043L18.4242 79.8174L18.4242 47.5057Z" stroke="#5FCE6C" stroke-width="1.5"/>
<path d="M41.2803 56.54L46.0673 63.521L41.2803 70.5019L8.9686 70.5019L4.18168 63.521L8.9686 56.54L41.2803 56.54Z" stroke="#5FCE6C" stroke-width="1.5"/>
<path d="M38.5924 27.3468L40.1438 19.0257L48.4649 17.4743L71.3128 40.3221L69.7614 48.6432L61.4402 50.1946L38.5924 27.3468Z" stroke="#5FCE6C" stroke-width="1.5"/>
<path d="M61.4402 17.4737L69.7613 19.0251L71.3127 27.3463L48.4649 50.1941L40.1438 48.6427L38.5924 40.3216L61.4402 17.4737Z" stroke="#5FCE6C" stroke-width="1.5"/>
<path d="M48.0417 17.8885L55.0227 13.1016L62.0036 17.8885L62.0036 50.2002L55.0227 54.9871L48.0417 50.2002L48.0417 17.8885Z" stroke="#5FCE6C" stroke-width="1.5"/>
<path d="M70.8979 26.9229L75.6848 33.9038L70.8979 40.8847L38.5862 40.8847L33.7992 33.9038L38.5862 26.9228L70.8979 26.9229Z" stroke="#5FCE6C" stroke-width="1.5"/>
<path d="M68.2099 -2.27138L69.7613 -10.5925L78.0825 -12.1439L100.93 10.7039L99.3789 19.0251L91.0578 20.5765L68.2099 -2.27138Z" stroke="#5FCE6C" stroke-width="1.5"/>
<path d="M91.0578 -12.1444L99.3789 -10.593L100.93 -2.2719L78.0824 20.5759L69.7613 19.0245L68.2099 10.7034L91.0578 -12.1444Z" stroke="#5FCE6C" stroke-width="1.5"/>
<path d="M77.6593 -11.7297L84.6402 -16.5166L91.6212 -11.7297L91.6212 20.5821L84.6402 25.369L77.6593 20.5821L77.6593 -11.7297Z" stroke="#5FCE6C" stroke-width="1.5"/>
<path d="M100.515 -2.69531L105.302 4.28562L100.515 11.2665L68.2037 11.2665L63.4168 4.28562L68.2037 -2.69531L100.515 -2.69531Z" stroke="#5FCE6C" stroke-width="1.5"/>
</svg>
