<svg width="131" height="139" viewBox="0 0 131 139" fill="none" xmlns="http://www.w3.org/2000/svg">
<path d="M166.452 42.1554L164.9 33.8342L156.579 32.2828L133.731 55.1307L135.283 63.4518L143.604 65.0032L166.452 42.1554Z" stroke="#5FCE6C" stroke-width="1.5"/>
<path d="M143.604 32.2823L135.283 33.8337L133.731 42.1549L156.579 65.0027L164.9 63.4513L166.452 55.1302L143.604 32.2823Z" stroke="#5FCE6C" stroke-width="1.5"/>
<path d="M134.146 41.7314L129.359 48.7124L134.146 55.6933L166.458 55.6933L171.245 48.7124L166.458 41.7314L134.146 41.7314Z" stroke="#5FCE6C" stroke-width="1.5"/>
<path d="M136.834 12.5382L135.283 4.21706L126.961 2.66566L104.114 25.5135L105.665 33.8346L113.986 35.386L136.834 12.5382Z" stroke="#5FCE6C" stroke-width="1.5"/>
<path d="M113.986 2.66514L105.665 4.21654L104.114 12.5377L126.962 35.3855L135.283 33.8341L136.834 25.513L113.986 2.66514Z" stroke="#5FCE6C" stroke-width="1.5"/>
<path d="M127.385 3.07989L120.404 -1.70703L113.423 3.07989L113.423 35.3916L120.404 40.1786L127.385 35.3916L127.385 3.07989Z" stroke="#5FCE6C" stroke-width="1.5"/>
<path d="M104.528 12.1143L99.7415 19.0952L104.528 26.0761L136.84 26.0761L141.627 19.0952L136.84 12.1143L104.528 12.1143Z" stroke="#5FCE6C" stroke-width="1.5"/>
<path d="M107.216 -17.08L105.665 -25.4011L97.3438 -26.9525L74.496 -4.10466L76.0474 4.21647L84.3685 5.76787L107.216 -17.08Z" stroke="#5FCE6C" stroke-width="1.5"/>
<path d="M84.3685 -26.953L76.0474 -25.4016L74.496 -17.0805L97.3438 5.76735L105.665 4.21595L107.216 -4.10518L84.3685 -26.953Z" stroke="#5FCE6C" stroke-width="1.5"/>
<path d="M97.767 -26.5383L90.786 -31.3252L83.8051 -26.5383L83.8051 5.77346L90.786 10.5604L97.767 5.77346L97.767 -26.5383Z" stroke="#5FCE6C" stroke-width="1.5"/>
<path d="M151.643 86.5821L150.091 78.261L141.77 76.7096L118.922 99.5575L120.474 107.879L128.795 109.43L151.643 86.5821Z" stroke="#5FCE6C" stroke-width="1.5"/>
<path d="M128.795 76.7091L120.474 78.2605L118.922 86.5816L141.77 109.429L150.091 107.878L151.643 99.5569L128.795 76.7091Z" stroke="#5FCE6C" stroke-width="1.5"/>
<path d="M142.193 77.1238L135.212 72.3369L128.231 77.1238L128.231 109.436L135.212 114.222L142.193 109.436L142.193 77.1238Z" stroke="#5FCE6C" stroke-width="1.5"/>
<path d="M119.337 86.1582L114.55 93.1391L119.337 100.12L151.649 100.12L156.436 93.1391L151.649 86.1582L119.337 86.1582Z" stroke="#5FCE6C" stroke-width="1.5"/>
<path d="M122.025 56.964L120.474 48.6428L112.153 47.0914L89.3048 69.9393L90.8562 78.2604L99.1773 79.8118L122.025 56.964Z" stroke="#5FCE6C" stroke-width="1.5"/>
<path d="M99.1773 47.0909L90.8562 48.6423L89.3048 56.9634L112.153 79.8113L120.474 78.2599L122.025 69.9388L99.1773 47.0909Z" stroke="#5FCE6C" stroke-width="1.5"/>
<path d="M112.576 47.5057L105.595 42.7187L98.6139 47.5057L98.6139 79.8174L105.595 84.6043L112.576 79.8174L112.576 47.5057Z" stroke="#5FCE6C" stroke-width="1.5"/>
<path d="M89.7196 56.54L84.9327 63.521L89.7196 70.5019L122.031 70.5019L126.818 63.521L122.031 56.54L89.7196 56.54Z" stroke="#5FCE6C" stroke-width="1.5"/>
<path d="M92.4077 27.3468L90.8563 19.0257L82.5351 17.4743L59.6873 40.3221L61.2387 48.6432L69.5598 50.1946L92.4077 27.3468Z" stroke="#5FCE6C" stroke-width="1.5"/>
<path d="M69.5598 17.4737L61.2387 19.0251L59.6873 27.3463L82.5351 50.1941L90.8562 48.6427L92.4076 40.3216L69.5598 17.4737Z" stroke="#5FCE6C" stroke-width="1.5"/>
<path d="M82.9583 17.8885L75.9773 13.1016L68.9964 17.8885L68.9964 50.2002L75.9773 54.9871L82.9583 50.2002L82.9583 17.8885Z" stroke="#5FCE6C" stroke-width="1.5"/>
<path d="M60.102 26.9229L55.3151 33.9038L60.102 40.8847L92.4138 40.8847L97.2007 33.9038L92.4138 26.9228L60.102 26.9229Z" stroke="#5FCE6C" stroke-width="1.5"/>
<path d="M62.7901 -2.27138L61.2387 -10.5925L52.9175 -12.1439L30.0697 10.7039L31.6211 19.0251L39.9422 20.5765L62.7901 -2.27138Z" stroke="#5FCE6C" stroke-width="1.5"/>
<path d="M39.9422 -12.1444L31.621 -10.593L30.0697 -2.2719L52.9175 20.5759L61.2386 19.0245L62.79 10.7034L39.9422 -12.1444Z" stroke="#5FCE6C" stroke-width="1.5"/>
<path d="M53.3406 -11.7297L46.3597 -16.5166L39.3788 -11.7297L39.3788 20.5821L46.3597 25.369L53.3406 20.5821L53.3406 -11.7297Z" stroke="#5FCE6C" stroke-width="1.5"/>
<path d="M30.4844 -2.69531L25.6975 4.28562L30.4844 11.2665L62.7962 11.2665L67.5831 4.28562L62.7962 -2.69531L30.4844 -2.69531Z" stroke="#5FCE6C" stroke-width="1.5"/>
</svg>
