<svg width="141" height="141" viewBox="0 0 141 141" fill="none" xmlns="http://www.w3.org/2000/svg">
<g opacity="0.1">
<path d="M30.9571 102.059L31.96 102.913L33.2312 102.569L118.452 79.481L119.724 79.1367L120.159 77.8935L127.796 56.0611L128.362 54.443L127.056 53.3319L109.443 38.3403L108.44 37.4866L107.169 37.831L21.9477 60.9185L20.6765 61.2629L20.2416 62.5061L12.6043 84.3384L12.0383 85.9566L13.3437 87.0677L30.9571 102.059Z" stroke="#C28F0F" stroke-width="5"/>
<path d="M38.3408 30.9571L37.4872 31.96L37.8316 33.2312L60.9191 118.452L61.2635 119.724L62.5066 120.159L84.339 127.796L85.9571 128.362L87.0682 127.056L102.06 109.443L102.914 108.44L102.569 107.169L79.4816 21.9477L79.1372 20.6765L77.8941 20.2416L56.0617 12.6043L54.4436 12.0383L53.3324 13.3437L38.3408 30.9571Z" stroke="#C28F0F" stroke-width="5"/>
<path d="M20.5177 65.0992L20.6232 66.412L21.7656 67.0673L98.3515 111.003L99.4939 111.658L100.68 111.086L121.519 101.049L123.063 100.305L122.926 98.5962L121.072 75.541L120.966 74.2282L119.824 73.5728L43.238 29.6376L42.0956 28.9823L40.9091 29.5538L20.0708 39.5912L18.5264 40.3352L18.6638 42.0439L20.5177 65.0992Z" stroke="#C28F0F" stroke-width="5"/>
<path d="M75.3014 20.5174L73.9887 20.623L73.3333 21.7654L29.3981 98.3513L28.7428 99.4936L29.3143 100.68L39.3517 121.518L40.0957 123.063L41.8044 122.925L64.8597 121.072L66.1724 120.966L66.8278 119.824L110.763 43.2377L111.418 42.0954L110.847 40.9088L100.809 20.0706L100.065 18.5261L98.3567 18.6635L75.3014 20.5174Z" stroke="#C28F0F" stroke-width="5"/>
</g>
</svg>
