<svg width="28" height="22" viewBox="0 0 28 22" fill="none" xmlns="http://www.w3.org/2000/svg">
<path d="M23.5284 0.00488281H4.86169C3.80083 0.00488281 2.78341 0.42631 2.03327 1.17646C1.28312 1.9266 0.861694 2.94402 0.861694 4.00488V17.3382C0.861694 18.3991 1.28312 19.4165 2.03327 20.1666C2.78341 20.9168 3.80083 21.3382 4.86169 21.3382H23.5284C24.5892 21.3382 25.6066 20.9168 26.3568 20.1666C27.1069 19.4165 27.5284 18.3991 27.5284 17.3382V4.00488C27.5284 2.94402 27.1069 1.9266 26.3568 1.17646C25.6066 0.42631 24.5892 0.00488281 23.5284 0.00488281ZM22.635 2.67155L14.195 9.00488L5.75503 2.67155H22.635ZM23.5284 18.6716H4.86169C4.50807 18.6716 4.16893 18.5311 3.91889 18.281C3.66884 18.031 3.52836 17.6918 3.52836 17.3382V4.33822L13.395 11.7382C13.6258 11.9113 13.9065 12.0049 14.195 12.0049C14.4835 12.0049 14.7642 11.9113 14.995 11.7382L24.8617 4.33822V17.3382C24.8617 17.6918 24.7212 18.031 24.4712 18.281C24.2211 18.5311 23.882 18.6716 23.5284 18.6716Z" fill="#1E1E1E"/>
</svg>
