<svg width="28" height="28" viewBox="0 0 28 28" fill="none" xmlns="http://www.w3.org/2000/svg">
<path fill-rule="evenodd" clip-rule="evenodd" d="M9.09099 18.7765C14.2177 23.9032 18.9683 24.4645 20.363 24.5165C22.0483 24.5779 23.7683 23.2019 24.5123 21.7925C23.3257 20.4005 21.7803 19.3205 20.0883 18.1499C19.0897 19.1472 17.859 21.0005 16.2203 20.3365C15.2883 19.9619 12.987 18.9019 10.9763 16.8899C8.96432 14.8792 7.90565 12.5779 7.52832 11.6472C6.86432 10.0059 8.72299 8.77252 9.72165 7.77385C8.55099 6.05385 7.48965 4.46852 6.10032 3.34185C4.67099 4.08852 3.28699 5.79519 3.34965 7.50319C3.40165 8.89785 3.96299 13.6485 9.09099 18.7765ZM20.2643 27.1819C18.3443 27.1112 12.903 26.3592 7.20432 20.6619C1.50699 14.9632 0.75632 9.52319 0.68432 7.60185C0.577653 4.67385 2.82032 1.82985 5.41099 0.719186C5.72296 0.584475 6.06459 0.533187 6.40236 0.570353C6.74013 0.60752 7.06244 0.731865 7.33765 0.931186C9.48165 2.49519 10.9603 4.86452 12.231 6.72052C12.4953 7.10645 12.6164 7.57266 12.5733 8.03844C12.5302 8.50423 12.3256 8.9403 11.995 9.27119L10.187 11.0805C10.607 12.0072 11.4617 13.6045 12.8617 15.0045C14.2617 16.4045 15.859 17.2592 16.787 17.6792L18.5937 15.8712C18.9258 15.5398 19.3637 15.3355 19.831 15.2939C20.2983 15.2522 20.7655 15.3758 21.151 15.6432C23.0443 16.9552 25.2683 18.4125 26.8897 20.4885C27.1052 20.7657 27.2422 21.0957 27.2866 21.444C27.3309 21.7923 27.2809 22.1462 27.1417 22.4685C26.0257 25.0725 23.2017 27.2899 20.2643 27.1819Z" fill="#1E1E1E"/>
</svg>
