<svg width="24" height="29" viewBox="0 0 24 29" fill="none" xmlns="http://www.w3.org/2000/svg">
<mask id="path-1-outside-1_73_5775" maskUnits="userSpaceOnUse" x="0.052124" y="0.242676" width="24" height="29" fill="black">
<rect fill="white" x="0.052124" y="0.242676" width="24" height="29"/>
<path d="M12.195 1.24268C15.1503 1.24268 17.9845 2.41665 20.0742 4.50634C22.1639 6.59603 23.3378 9.43026 23.3378 12.3855C23.3378 17.0941 20.0293 22.2255 13.4978 27.8347C13.1347 28.1467 12.6716 28.318 12.1928 28.3176C11.7141 28.3172 11.2513 28.145 10.8887 27.8324L10.4567 27.4575C4.21441 21.9947 1.05212 16.989 1.05212 12.3855C1.05212 9.43026 2.2261 6.59603 4.31579 4.50634C6.40548 2.41665 9.23971 1.24268 12.195 1.24268ZM12.195 2.95696C9.69437 2.95696 7.29618 3.95033 5.52798 5.71853C3.75977 7.48673 2.76641 9.88492 2.76641 12.3855C2.76641 16.3878 5.67841 20.9992 11.5824 26.165L12.0087 26.5341C12.0605 26.5787 12.1266 26.6032 12.195 26.6032C12.2633 26.6032 12.3294 26.5787 12.3813 26.5341C18.571 21.2175 21.6236 16.4827 21.6236 12.3855C21.6236 11.1474 21.3797 9.9213 20.9058 8.77738C20.432 7.63345 19.7375 6.59405 18.862 5.71853C17.9865 4.843 16.9471 4.1485 15.8031 3.67467C14.6592 3.20084 13.4332 2.95696 12.195 2.95696ZM12.195 8.09982C13.3316 8.09982 14.4217 8.55135 15.2254 9.35508C16.0292 10.1588 16.4807 11.2489 16.4807 12.3855C16.4807 13.5222 16.0292 14.6123 15.2254 15.416C14.4217 16.2197 13.3316 16.6712 12.195 16.6712C11.0583 16.6712 9.96825 16.2197 9.16452 15.416C8.3608 14.6123 7.90927 13.5222 7.90927 12.3855C7.90927 11.2489 8.3608 10.1588 9.16452 9.35508C9.96825 8.55135 11.0583 8.09982 12.195 8.09982ZM12.195 9.81411C11.513 9.81411 10.8589 10.085 10.3767 10.5673C9.89447 11.0495 9.62355 11.7035 9.62355 12.3855C9.62355 13.0675 9.89447 13.7216 10.3767 14.2038C10.8589 14.686 11.513 14.957 12.195 14.957C12.877 14.957 13.531 14.686 14.0133 14.2038C14.4955 13.7216 14.7664 13.0675 14.7664 12.3855C14.7664 11.7035 14.4955 11.0495 14.0133 10.5673C13.531 10.085 12.877 9.81411 12.195 9.81411Z"/>
</mask>
<path d="M12.195 1.24268C15.1503 1.24268 17.9845 2.41665 20.0742 4.50634C22.1639 6.59603 23.3378 9.43026 23.3378 12.3855C23.3378 17.0941 20.0293 22.2255 13.4978 27.8347C13.1347 28.1467 12.6716 28.318 12.1928 28.3176C11.7141 28.3172 11.2513 28.145 10.8887 27.8324L10.4567 27.4575C4.21441 21.9947 1.05212 16.989 1.05212 12.3855C1.05212 9.43026 2.2261 6.59603 4.31579 4.50634C6.40548 2.41665 9.23971 1.24268 12.195 1.24268ZM12.195 2.95696C9.69437 2.95696 7.29618 3.95033 5.52798 5.71853C3.75977 7.48673 2.76641 9.88492 2.76641 12.3855C2.76641 16.3878 5.67841 20.9992 11.5824 26.165L12.0087 26.5341C12.0605 26.5787 12.1266 26.6032 12.195 26.6032C12.2633 26.6032 12.3294 26.5787 12.3813 26.5341C18.571 21.2175 21.6236 16.4827 21.6236 12.3855C21.6236 11.1474 21.3797 9.9213 20.9058 8.77738C20.432 7.63345 19.7375 6.59405 18.862 5.71853C17.9865 4.843 16.9471 4.1485 15.8031 3.67467C14.6592 3.20084 13.4332 2.95696 12.195 2.95696ZM12.195 8.09982C13.3316 8.09982 14.4217 8.55135 15.2254 9.35508C16.0292 10.1588 16.4807 11.2489 16.4807 12.3855C16.4807 13.5222 16.0292 14.6123 15.2254 15.416C14.4217 16.2197 13.3316 16.6712 12.195 16.6712C11.0583 16.6712 9.96825 16.2197 9.16452 15.416C8.3608 14.6123 7.90927 13.5222 7.90927 12.3855C7.90927 11.2489 8.3608 10.1588 9.16452 9.35508C9.96825 8.55135 11.0583 8.09982 12.195 8.09982ZM12.195 9.81411C11.513 9.81411 10.8589 10.085 10.3767 10.5673C9.89447 11.0495 9.62355 11.7035 9.62355 12.3855C9.62355 13.0675 9.89447 13.7216 10.3767 14.2038C10.8589 14.686 11.513 14.957 12.195 14.957C12.877 14.957 13.531 14.686 14.0133 14.2038C14.4955 13.7216 14.7664 13.0675 14.7664 12.3855C14.7664 11.7035 14.4955 11.0495 14.0133 10.5673C13.531 10.085 12.877 9.81411 12.195 9.81411Z" fill="#1E1E1E"/>
<path d="M12.195 1.24268C15.1503 1.24268 17.9845 2.41665 20.0742 4.50634C22.1639 6.59603 23.3378 9.43026 23.3378 12.3855C23.3378 17.0941 20.0293 22.2255 13.4978 27.8347C13.1347 28.1467 12.6716 28.318 12.1928 28.3176C11.7141 28.3172 11.2513 28.145 10.8887 27.8324L10.4567 27.4575C4.21441 21.9947 1.05212 16.989 1.05212 12.3855C1.05212 9.43026 2.2261 6.59603 4.31579 4.50634C6.40548 2.41665 9.23971 1.24268 12.195 1.24268ZM12.195 2.95696C9.69437 2.95696 7.29618 3.95033 5.52798 5.71853C3.75977 7.48673 2.76641 9.88492 2.76641 12.3855C2.76641 16.3878 5.67841 20.9992 11.5824 26.165L12.0087 26.5341C12.0605 26.5787 12.1266 26.6032 12.195 26.6032C12.2633 26.6032 12.3294 26.5787 12.3813 26.5341C18.571 21.2175 21.6236 16.4827 21.6236 12.3855C21.6236 11.1474 21.3797 9.9213 20.9058 8.77738C20.432 7.63345 19.7375 6.59405 18.862 5.71853C17.9865 4.843 16.9471 4.1485 15.8031 3.67467C14.6592 3.20084 13.4332 2.95696 12.195 2.95696ZM12.195 8.09982C13.3316 8.09982 14.4217 8.55135 15.2254 9.35508C16.0292 10.1588 16.4807 11.2489 16.4807 12.3855C16.4807 13.5222 16.0292 14.6123 15.2254 15.416C14.4217 16.2197 13.3316 16.6712 12.195 16.6712C11.0583 16.6712 9.96825 16.2197 9.16452 15.416C8.3608 14.6123 7.90927 13.5222 7.90927 12.3855C7.90927 11.2489 8.3608 10.1588 9.16452 9.35508C9.96825 8.55135 11.0583 8.09982 12.195 8.09982ZM12.195 9.81411C11.513 9.81411 10.8589 10.085 10.3767 10.5673C9.89447 11.0495 9.62355 11.7035 9.62355 12.3855C9.62355 13.0675 9.89447 13.7216 10.3767 14.2038C10.8589 14.686 11.513 14.957 12.195 14.957C12.877 14.957 13.531 14.686 14.0133 14.2038C14.4955 13.7216 14.7664 13.0675 14.7664 12.3855C14.7664 11.7035 14.4955 11.0495 14.0133 10.5673C13.531 10.085 12.877 9.81411 12.195 9.81411Z" stroke="#1C1E1C" mask="url(#path-1-outside-1_73_5775)"/>
</svg>
