<svg width="66" height="66" viewBox="0 0 66 66" fill="none" xmlns="http://www.w3.org/2000/svg">
<path d="M35.1918 6.95056L33 4.60548L30.8082 6.95056L24.8507 13.3249L16.1308 13.0302L12.9227 12.9218L13.0311 16.1298L13.3258 24.8497L6.95154 30.8073L4.60646 32.999L6.95154 35.1908L13.3258 41.1483L13.0311 49.8683L12.9227 53.0763L16.1308 52.9679L24.8507 52.6732L30.8082 59.0475L33 61.3926L35.1918 59.0475L41.1493 52.6732L49.8692 52.9679L53.0773 53.0763L52.9688 49.8683L52.6742 41.1483L59.0485 35.1908L61.3935 32.999L59.0485 30.8073L52.6742 24.8497L52.9688 16.1298L53.0773 12.9218L49.8692 13.0302L41.1493 13.3249L35.1918 6.95056Z" fill="white" stroke="#C28F0F" stroke-width="6"/>
</svg>
