<svg width="594" height="136" viewBox="0 0 594 136" fill="none" xmlns="http://www.w3.org/2000/svg">
<path d="M34 68L560 68" stroke="#3BB349" stroke-width="3" stroke-linecap="round" stroke-dasharray="7 7"/>
<path d="M50.1918 41.7797L48 39.4346L45.8082 41.7797L39.8507 48.154L31.1308 47.8593L27.9227 47.7509L28.0311 50.9589L28.3258 59.6788L21.9515 65.6364L19.6065 67.8281L21.9515 70.0199L28.3258 75.9774L28.0311 84.6974L27.9227 87.9054L31.1308 87.797L39.8507 87.5023L45.8082 93.8766L48 96.2217L50.1918 93.8766L56.1493 87.5023L64.8692 87.797L68.0773 87.9054L67.9688 84.6974L67.6742 75.9774L74.0485 70.0199L76.3935 67.8281L74.0485 65.6364L67.6742 59.6788L67.9688 50.9589L68.0773 47.7509L64.8692 47.8593L56.1493 48.154L50.1918 41.7797Z" fill="white" stroke="#3BB349" stroke-width="6"/>
<path d="M48.586 80V76.704H39.178V73.056L43.562 58.912H49.226L44.138 72.512H48.586L48.906 67.456L53.546 67.36V72.512H55.242V76.704H53.546V80H48.586Z" fill="#3BB349"/>
<g filter="url(#filter0_d_104_134)">
<path d="M216.192 41.7797L214 39.4346L211.808 41.7797L205.851 48.154L197.131 47.8593L193.923 47.7509L194.031 50.9589L194.326 59.6788L187.952 65.6364L185.606 67.8281L187.952 70.0199L194.326 75.9774L194.031 84.6974L193.923 87.9054L197.131 87.797L205.851 87.5023L211.808 93.8766L214 96.2217L216.192 93.8766L222.149 87.5023L230.869 87.797L234.077 87.9054L233.969 84.6974L233.674 75.9774L240.048 70.0199L242.394 67.8281L240.048 65.6364L233.674 59.6788L233.969 50.9589L234.077 47.7509L230.869 47.8593L222.149 48.154L216.192 41.7797Z" fill="#3BB349" stroke="#3BB349" stroke-width="6"/>
<path d="M212.666 80.384C211.898 80.384 211.077 80.3307 210.202 80.224C209.349 80.1387 208.527 80.032 207.738 79.904C206.97 79.776 206.319 79.648 205.786 79.52L206.01 75.648C206.522 75.712 207.13 75.7867 207.834 75.872C208.538 75.936 209.263 76 210.01 76.064C210.757 76.1067 211.429 76.128 212.026 76.128C213.114 76.128 213.935 75.936 214.49 75.552C215.066 75.168 215.354 74.5387 215.354 73.664C215.354 73.0667 215.237 72.5973 215.002 72.256C214.767 71.9147 214.426 71.6693 213.978 71.52C213.53 71.3493 212.997 71.2427 212.378 71.2H207.994V67.232H212.25C212.719 67.232 213.157 67.1467 213.562 66.976C213.989 66.784 214.33 66.5173 214.586 66.176C214.842 65.8133 214.97 65.3867 214.97 64.896C214.97 64.1067 214.703 63.552 214.17 63.232C213.658 62.912 212.858 62.752 211.77 62.752C211.151 62.752 210.49 62.784 209.786 62.848C209.103 62.8907 208.442 62.944 207.802 63.008C207.183 63.072 206.661 63.1467 206.234 63.232L206.042 59.424C206.511 59.296 207.087 59.1573 207.77 59.008C208.474 58.8587 209.199 58.7413 209.946 58.656C210.714 58.5493 211.418 58.496 212.058 58.496C213.935 58.496 215.45 58.688 216.602 59.072C217.775 59.456 218.629 60.0747 219.162 60.928C219.717 61.7813 219.994 62.912 219.994 64.32C219.994 65.024 219.909 65.6213 219.738 66.112C219.589 66.6027 219.386 67.0293 219.13 67.392C218.874 67.7333 218.597 68.032 218.298 68.288C217.999 68.5227 217.722 68.736 217.466 68.928C218.063 69.2267 218.575 69.568 219.002 69.952C219.45 70.3147 219.791 70.784 220.026 71.36C220.261 71.936 220.378 72.704 220.378 73.664C220.378 75.3067 220.09 76.6187 219.514 77.6C218.959 78.5813 218.106 79.296 216.954 79.744C215.802 80.1707 214.373 80.384 212.666 80.384Z" fill="white"/>
</g>
<path d="M382.192 41.9515L380 39.6065L377.808 41.9515L371.851 48.3258L363.131 48.0311L359.923 47.9227L360.031 51.1308L360.326 59.8507L353.952 65.8082L351.606 68L353.952 70.1918L360.326 76.1493L360.031 84.8692L359.923 88.0773L363.131 87.9688L371.851 87.6742L377.808 94.0485L380 96.3935L382.192 94.0485L388.149 87.6742L396.869 87.9688L400.077 88.0773L399.969 84.8692L399.674 76.1493L406.048 70.1918L408.394 68L406.048 65.8082L399.674 59.8507L399.969 51.1308L400.077 47.9227L396.869 48.0311L388.149 48.3258L382.192 41.9515Z" fill="#3BB349" stroke="#3BB349" stroke-width="6"/>
<path d="M389.637 62.2664C389.465 62.0958 389.232 62 388.989 62C388.746 62 388.513 62.0958 388.341 62.2664L378.135 72.3892L372.619 66.8926C372.45 66.7116 372.217 66.6046 371.969 66.5952C371.722 66.5857 371.481 66.6746 371.299 66.8422C371.118 67.0099 371.01 67.2426 371.001 67.4891C370.991 67.7356 371.08 67.9758 371.249 68.1568L378.135 75L389.637 63.5672C389.723 63.4821 389.792 63.3808 389.838 63.2691C389.885 63.1575 389.909 63.0377 389.909 62.9168C389.909 62.7959 389.885 62.6761 389.838 62.5645C389.792 62.4529 389.723 62.3516 389.637 62.2664Z" fill="white" stroke="white" stroke-width="2"/>
<path d="M548.192 41.9515L546 39.6065L543.808 41.9515L537.851 48.3258L529.131 48.0311L525.923 47.9227L526.031 51.1308L526.326 59.8507L519.952 65.8082L517.606 68L519.952 70.1918L526.326 76.1493L526.031 84.8692L525.923 88.0773L529.131 87.9688L537.851 87.6742L543.808 94.0485L546 96.3935L548.192 94.0485L554.149 87.6742L562.869 87.9688L566.077 88.0773L565.969 84.8692L565.674 76.1493L572.048 70.1918L574.394 68L572.048 65.8082L565.674 59.8507L565.969 51.1308L566.077 47.9227L562.869 48.0311L554.149 48.3258L548.192 41.9515Z" fill="#3BB349" stroke="#3BB349" stroke-width="6"/>
<path d="M555.637 62.2664C555.465 62.0958 555.232 62 554.989 62C554.746 62 554.513 62.0958 554.341 62.2664L544.135 72.3892L538.619 66.8926C538.45 66.7116 538.217 66.6046 537.969 66.5952C537.722 66.5857 537.481 66.6746 537.299 66.8422C537.118 67.0099 537.01 67.2426 537.001 67.4891C536.991 67.7356 537.08 67.9758 537.249 68.1568L544.135 75L555.637 63.5672C555.723 63.4821 555.792 63.3808 555.838 63.2691C555.885 63.1575 555.909 63.0377 555.909 62.9168C555.909 62.7959 555.885 62.6761 555.838 62.5645C555.792 62.4529 555.723 62.3516 555.637 62.2664Z" fill="white" stroke="white" stroke-width="2"/>
<defs>
<filter id="filter0_d_104_134" x="146.213" y="0.0410156" width="135.574" height="135.574" filterUnits="userSpaceOnUse" color-interpolation-filters="sRGB">
<feFlood flood-opacity="0" result="BackgroundImageFix"/>
<feColorMatrix in="SourceAlpha" type="matrix" values="0 0 0 0 0 0 0 0 0 0 0 0 0 0 0 0 0 0 127 0" result="hardAlpha"/>
<feOffset/>
<feGaussianBlur stdDeviation="17.5"/>
<feComposite in2="hardAlpha" operator="out"/>
<feColorMatrix type="matrix" values="0 0 0 0 0.231373 0 0 0 0 0.701961 0 0 0 0 0.286275 0 0 0 0.15 0"/>
<feBlend mode="normal" in2="BackgroundImageFix" result="effect1_dropShadow_104_134"/>
<feBlend mode="normal" in="SourceGraphic" in2="effect1_dropShadow_104_134" result="shape"/>
</filter>
</defs>
</svg>
