<svg width="614" height="136" viewBox="0 0 614 136" fill="none" xmlns="http://www.w3.org/2000/svg">
<path d="M54 68L580 68" stroke="#3BB349" stroke-width="3" stroke-linecap="round" stroke-dasharray="7 7"/>
<g filter="url(#filter0_d_110_64)">
<path d="M70.1918 41.7797L68 39.4346L65.8082 41.7797L59.8507 48.154L51.1308 47.8593L47.9227 47.7509L48.0311 50.9589L48.3258 59.6788L41.9515 65.6364L39.6065 67.8281L41.9515 70.0199L48.3258 75.9774L48.0311 84.6974L47.9227 87.9054L51.1308 87.797L59.8507 87.5023L65.8082 93.8766L68 96.2217L70.1918 93.8766L76.1493 87.5023L84.8692 87.797L88.0773 87.9054L87.9688 84.6974L87.6742 75.9774L94.0485 70.0199L96.3935 67.8281L94.0485 65.6364L87.6742 59.6788L87.9688 50.9589L88.0773 47.7509L84.8692 47.8593L76.1493 48.154L70.1918 41.7797Z" fill="#3BB349" stroke="#3BB349" stroke-width="6"/>
<path d="M68.586 80V76.704H59.178V73.056L63.562 58.912H69.226L64.138 72.512H68.586L68.906 67.456L73.546 67.36V72.512H75.242V76.704H73.546V80H68.586Z" fill="white"/>
</g>
<path d="M236.192 41.9515L234 39.6065L231.808 41.9515L225.851 48.3258L217.131 48.0311L213.923 47.9227L214.031 51.1308L214.326 59.8507L207.952 65.8082L205.606 68L207.952 70.1918L214.326 76.1493L214.031 84.8692L213.923 88.0773L217.131 87.9688L225.851 87.6742L231.808 94.0485L234 96.3935L236.192 94.0485L242.149 87.6742L250.869 87.9688L254.077 88.0773L253.969 84.8692L253.674 76.1493L260.048 70.1918L262.394 68L260.048 65.8082L253.674 59.8507L253.969 51.1308L254.077 47.9227L250.869 48.0311L242.149 48.3258L236.192 41.9515Z" fill="#3BB349" stroke="#3BB349" stroke-width="6"/>
<path d="M243.637 62.2664C243.465 62.0958 243.232 62 242.989 62C242.746 62 242.513 62.0958 242.341 62.2664L232.135 72.3892L226.619 66.8926C226.45 66.7116 226.217 66.6046 225.969 66.5952C225.722 66.5857 225.481 66.6746 225.299 66.8422C225.118 67.0099 225.01 67.2426 225.001 67.4891C224.991 67.7356 225.08 67.9758 225.249 68.1568L232.135 75L243.637 63.5672C243.723 63.4821 243.792 63.3808 243.838 63.2691C243.885 63.1575 243.909 63.0377 243.909 62.9168C243.909 62.7959 243.885 62.6761 243.838 62.5645C243.792 62.4529 243.723 62.3516 243.637 62.2664Z" fill="white" stroke="white" stroke-width="2"/>
<path d="M402.192 41.9515L400 39.6065L397.808 41.9515L391.851 48.3258L383.131 48.0311L379.923 47.9227L380.031 51.1308L380.326 59.8507L373.952 65.8082L371.606 68L373.952 70.1918L380.326 76.1493L380.031 84.8692L379.923 88.0773L383.131 87.9688L391.851 87.6742L397.808 94.0485L400 96.3935L402.192 94.0485L408.149 87.6742L416.869 87.9688L420.077 88.0773L419.969 84.8692L419.674 76.1493L426.048 70.1918L428.394 68L426.048 65.8082L419.674 59.8507L419.969 51.1308L420.077 47.9227L416.869 48.0311L408.149 48.3258L402.192 41.9515Z" fill="#3BB349" stroke="#3BB349" stroke-width="6"/>
<path d="M409.637 62.2664C409.465 62.0958 409.232 62 408.989 62C408.746 62 408.513 62.0958 408.341 62.2664L398.135 72.3892L392.619 66.8926C392.45 66.7116 392.217 66.6046 391.969 66.5952C391.722 66.5857 391.481 66.6746 391.299 66.8422C391.118 67.0099 391.01 67.2426 391.001 67.4891C390.991 67.7356 391.08 67.9758 391.249 68.1568L398.135 75L409.637 63.5672C409.723 63.4821 409.792 63.3808 409.838 63.2691C409.885 63.1575 409.909 63.0377 409.909 62.9168C409.909 62.7959 409.885 62.6761 409.838 62.5645C409.792 62.4529 409.723 62.3516 409.637 62.2664Z" fill="white" stroke="white" stroke-width="2"/>
<path d="M568.192 41.9515L566 39.6065L563.808 41.9515L557.851 48.3258L549.131 48.0311L545.923 47.9227L546.031 51.1308L546.326 59.8507L539.952 65.8082L537.606 68L539.952 70.1918L546.326 76.1493L546.031 84.8692L545.923 88.0773L549.131 87.9688L557.851 87.6742L563.808 94.0485L566 96.3935L568.192 94.0485L574.149 87.6742L582.869 87.9688L586.077 88.0773L585.969 84.8692L585.674 76.1493L592.048 70.1918L594.394 68L592.048 65.8082L585.674 59.8507L585.969 51.1308L586.077 47.9227L582.869 48.0311L574.149 48.3258L568.192 41.9515Z" fill="#3BB349" stroke="#3BB349" stroke-width="6"/>
<path d="M575.637 62.2664C575.465 62.0958 575.232 62 574.989 62C574.746 62 574.513 62.0958 574.341 62.2664L564.135 72.3892L558.619 66.8926C558.45 66.7116 558.217 66.6046 557.969 66.5952C557.722 66.5857 557.481 66.6746 557.299 66.8422C557.118 67.0099 557.01 67.2426 557.001 67.4891C556.991 67.7356 557.08 67.9758 557.249 68.1568L564.135 75L575.637 63.5672C575.723 63.4821 575.792 63.3808 575.838 63.2691C575.885 63.1575 575.909 63.0377 575.909 62.9168C575.909 62.7959 575.885 62.6761 575.838 62.5645C575.792 62.4529 575.723 62.3516 575.637 62.2664Z" fill="white" stroke="white" stroke-width="2"/>
<defs>
<filter id="filter0_d_110_64" x="0.212891" y="0.0410156" width="135.574" height="135.574" filterUnits="userSpaceOnUse" color-interpolation-filters="sRGB">
<feFlood flood-opacity="0" result="BackgroundImageFix"/>
<feColorMatrix in="SourceAlpha" type="matrix" values="0 0 0 0 0 0 0 0 0 0 0 0 0 0 0 0 0 0 127 0" result="hardAlpha"/>
<feOffset/>
<feGaussianBlur stdDeviation="17.5"/>
<feComposite in2="hardAlpha" operator="out"/>
<feColorMatrix type="matrix" values="0 0 0 0 0.0425 0 0 0 0 0.566667 0 0 0 0 0.103653 0 0 0 0.15 0"/>
<feBlend mode="normal" in2="BackgroundImageFix" result="effect1_dropShadow_110_64"/>
<feBlend mode="normal" in="SourceGraphic" in2="effect1_dropShadow_110_64" result="shape"/>
</filter>
</defs>
</svg>
