<svg width="49" height="49" viewBox="0 0 49 49" fill="none" xmlns="http://www.w3.org/2000/svg">
<path d="M24.5 4.89257L29.1965 9.91765L30.1273 10.9135L31.4896 10.8675L38.3639 10.6352L38.1315 17.5094L38.0855 18.8717L39.0814 19.8025L44.1065 24.499L39.0814 29.1956L38.0855 30.1263L38.1315 31.4887L38.3639 38.3629L31.4896 38.1306L30.1273 38.0845L29.1965 39.0804L24.5 44.1055L19.8035 39.0804L18.8727 38.0845L17.5104 38.1306L10.6361 38.3629L10.8685 31.4887L10.9145 30.1263L9.91863 29.1956L4.89354 24.499L9.91863 19.8025L10.9145 18.8717L10.8685 17.5094L10.6361 10.6352L17.5104 10.8675L18.8727 10.9135L19.8035 9.91765L24.5 4.89257Z" fill="white" stroke="#C28F0F" stroke-width="6"/>
<path d="M24.5 7.45832L28.7703 12.0274L29.3908 12.6913L30.299 12.6606L36.5494 12.4494L36.3382 18.6997L36.3075 19.6079L36.9714 20.2284L41.5404 24.4988L36.9714 28.7691L36.3075 29.3896L36.3382 30.2978L36.5494 36.5482L30.299 36.3369L29.3908 36.3062L28.7703 36.9702L24.5 41.5392L20.2297 36.9702L19.6092 36.3062L18.7009 36.3369L12.4506 36.5482L12.6618 30.2978L12.6925 29.3896L12.0286 28.7691L7.45955 24.4988L12.0286 20.2284L12.6925 19.6079L12.6618 18.6997L12.4506 12.4494L18.7009 12.6606L19.6092 12.6913L20.2297 12.0274L24.5 7.45832Z" fill="#89C63A" stroke="white" stroke-width="4"/>
</svg>
