<svg width="85" height="84" viewBox="0 0 85 84" fill="none" xmlns="http://www.w3.org/2000/svg">
<g filter="url(#filter0_d_73_9260)">
<path d="M42.5 12.9281L50.2232 21.1916L50.8437 21.8555L51.752 21.8248L63.0563 21.4427L62.6743 32.7471L62.6436 33.6553L63.3075 34.2758L71.571 41.999L63.3075 49.7223L62.6436 50.3428L62.6743 51.251L63.0563 62.5553L51.752 62.1733L50.8437 62.1426L50.2232 62.8065L42.5 71.07L34.7768 62.8065L34.1563 62.1426L33.248 62.1733L21.9437 62.5553L22.3257 51.251L22.3564 50.3428L21.6925 49.7223L13.429 41.999L21.6925 34.2758L22.3564 33.6553L22.3257 32.7471L21.9437 21.4427L33.248 21.8248L34.1563 21.8555L34.7768 21.1916L42.5 12.9281Z" fill="white" stroke="#C28F0F" stroke-width="4"/>
<path d="M29.1666 47.3327V31.3327C29.1666 30.6254 29.4476 29.9472 29.9477 29.4471C30.4478 28.947 31.126 28.666 31.8333 28.666H46.5" stroke="#3BB349" stroke-width="2.66667" stroke-linecap="round" stroke-linejoin="round"/>
<path d="M33.1666 44.6657H31.8333C31.126 44.6657 30.4478 44.9466 29.9477 45.4467C29.4476 45.9468 29.1666 46.6251 29.1666 47.3324C29.1666 48.0396 29.4476 48.7179 29.9477 49.218C30.4478 49.7181 31.126 49.999 31.8333 49.999H33.1666M55.8333 49.999H41.1666C40.4594 49.999 39.7811 50.28 39.281 50.7801C38.7809 51.2802 38.5 51.9584 38.5 52.6657M38.5 52.6657C38.5 53.3729 38.7809 54.0512 39.281 54.5513C39.7811 55.0514 40.4594 55.3324 41.1666 55.3324H55.8333V33.999H41.1666C40.4594 33.999 39.7811 34.28 39.281 34.7801C38.7809 35.2802 38.5 35.9584 38.5 36.6657V52.6657Z" stroke="#3BB349" stroke-width="2.66667" stroke-linecap="round" stroke-linejoin="round"/>
</g>
<defs>
<filter id="filter0_d_73_9260" x="0.5" y="-0.000976562" width="84" height="84" filterUnits="userSpaceOnUse" color-interpolation-filters="sRGB">
<feFlood flood-opacity="0" result="BackgroundImageFix"/>
<feColorMatrix in="SourceAlpha" type="matrix" values="0 0 0 0 0 0 0 0 0 0 0 0 0 0 0 0 0 0 127 0" result="hardAlpha"/>
<feOffset/>
<feGaussianBlur stdDeviation="5"/>
<feComposite in2="hardAlpha" operator="out"/>
<feColorMatrix type="matrix" values="0 0 0 0 0 0 0 0 0 0 0 0 0 0 0 0 0 0 0.07 0"/>
<feBlend mode="normal" in2="BackgroundImageFix" result="effect1_dropShadow_73_9260"/>
<feBlend mode="normal" in="SourceGraphic" in2="effect1_dropShadow_73_9260" result="shape"/>
</filter>
</defs>
</svg>
