<svg width="85" height="84" viewBox="0 0 85 84" fill="none" xmlns="http://www.w3.org/2000/svg">
<g filter="url(#filter0_d_73_9270)">
<path d="M42.5 12.9281L50.2232 21.1916L50.8437 21.8555L51.752 21.8248L63.0563 21.4427L62.6743 32.7471L62.6436 33.6553L63.3075 34.2758L71.571 41.999L63.3075 49.7223L62.6436 50.3428L62.6743 51.251L63.0563 62.5553L51.752 62.1733L50.8437 62.1426L50.2232 62.8065L42.5 71.07L34.7768 62.8065L34.1563 62.1426L33.248 62.1733L21.9437 62.5553L22.3257 51.251L22.3564 50.3428L21.6925 49.7223L13.429 41.999L21.6925 34.2758L22.3564 33.6553L22.3257 32.7471L21.9437 21.4427L33.248 21.8248L34.1563 21.8555L34.7768 21.1916L42.5 12.9281Z" fill="white" stroke="#C28F0F" stroke-width="4"/>
<path d="M53.5 30.999H31.5C30.9696 30.999 30.4609 31.2097 30.0858 31.5848C29.7107 31.9599 29.5 32.4686 29.5 32.999V50.999C29.5 51.5295 29.7107 52.0382 30.0858 52.4132C30.4609 52.7883 30.9696 52.999 31.5 52.999H33.1737C33.363 52.9991 33.5484 52.9454 33.7084 52.8443C33.8684 52.7432 33.9964 52.5988 34.0775 52.4278C34.5638 51.4011 35.3315 50.5336 36.2914 49.9261C37.2514 49.3186 38.364 48.9961 39.5 48.9961C40.636 48.9961 41.7486 49.3186 42.7086 49.9261C43.6685 50.5336 44.4362 51.4011 44.9225 52.4278C45.0036 52.5988 45.1316 52.7432 45.2916 52.8443C45.4516 52.9454 45.637 52.9991 45.8263 52.999H53.5C54.0304 52.999 54.5391 52.7883 54.9142 52.4132C55.2893 52.0382 55.5 51.5295 55.5 50.999V32.999C55.5 32.4686 55.2893 31.9599 54.9142 31.5848C54.5391 31.2097 54.0304 30.999 53.5 30.999ZM36.5 43.999C36.5 43.4057 36.6759 42.8257 37.0056 42.3323C37.3352 41.839 37.8038 41.4544 38.3519 41.2274C38.9001 41.0003 39.5033 40.9409 40.0853 41.0567C40.6672 41.1724 41.2018 41.4581 41.6213 41.8777C42.0409 42.2973 42.3266 42.8318 42.4424 43.4138C42.5581 43.9957 42.4987 44.5989 42.2716 45.1471C42.0446 45.6953 41.6601 46.1638 41.1667 46.4934C40.6734 46.8231 40.0933 46.999 39.5 46.999C38.7044 46.999 37.9413 46.683 37.3787 46.1203C36.8161 45.5577 36.5 44.7947 36.5 43.999ZM53.5 50.999H46.4287C45.5937 49.5633 44.3349 48.4211 42.825 47.729C43.582 47.055 44.1162 46.1668 44.357 45.1822C44.5977 44.1977 44.5335 43.1632 44.1729 42.2159C43.8122 41.2687 43.1723 40.4534 42.3377 39.8781C41.5032 39.3029 40.5136 38.9948 39.5 38.9948C38.4864 38.9948 37.4968 39.3029 36.6623 39.8781C35.8277 40.4534 35.1878 41.2687 34.8271 42.2159C34.4665 43.1632 34.4023 44.1977 34.643 45.1822C34.8838 46.1668 35.418 47.055 36.175 47.729C34.6651 48.4211 33.4063 49.5633 32.5712 50.999H31.5V32.999H53.5V50.999ZM33.5 37.999V35.999C33.5 35.7338 33.6054 35.4795 33.7929 35.2919C33.9804 35.1044 34.2348 34.999 34.5 34.999H50.5C50.7652 34.999 51.0196 35.1044 51.2071 35.2919C51.3946 35.4795 51.5 35.7338 51.5 35.999V47.999C51.5 48.2642 51.3946 48.5186 51.2071 48.7061C51.0196 48.8937 50.7652 48.999 50.5 48.999H48.5C48.2348 48.999 47.9804 48.8937 47.7929 48.7061C47.6054 48.5186 47.5 48.2642 47.5 47.999C47.5 47.7338 47.6054 47.4795 47.7929 47.2919C47.9804 47.1044 48.2348 46.999 48.5 46.999H49.5V36.999H35.5V37.999C35.5 38.2642 35.3946 38.5186 35.2071 38.7061C35.0196 38.8937 34.7652 38.999 34.5 38.999C34.2348 38.999 33.9804 38.8937 33.7929 38.7061C33.6054 38.5186 33.5 38.2642 33.5 37.999Z" fill="#3BB349"/>
</g>
<defs>
<filter id="filter0_d_73_9270" x="0.5" y="-0.000976562" width="84" height="84" filterUnits="userSpaceOnUse" color-interpolation-filters="sRGB">
<feFlood flood-opacity="0" result="BackgroundImageFix"/>
<feColorMatrix in="SourceAlpha" type="matrix" values="0 0 0 0 0 0 0 0 0 0 0 0 0 0 0 0 0 0 127 0" result="hardAlpha"/>
<feOffset/>
<feGaussianBlur stdDeviation="5"/>
<feComposite in2="hardAlpha" operator="out"/>
<feColorMatrix type="matrix" values="0 0 0 0 0 0 0 0 0 0 0 0 0 0 0 0 0 0 0.07 0"/>
<feBlend mode="normal" in2="BackgroundImageFix" result="effect1_dropShadow_73_9270"/>
<feBlend mode="normal" in="SourceGraphic" in2="effect1_dropShadow_73_9270" result="shape"/>
</filter>
</defs>
</svg>
