<svg width="85" height="84" viewBox="0 0 85 84" fill="none" xmlns="http://www.w3.org/2000/svg">
<g filter="url(#filter0_d_73_9203)">
<path d="M42.5 12.9281L50.2232 21.1916L50.8437 21.8555L51.752 21.8248L63.0563 21.4427L62.6743 32.7471L62.6436 33.6553L63.3075 34.2758L71.571 41.999L63.3075 49.7223L62.6436 50.3428L62.6743 51.251L63.0563 62.5553L51.752 62.1733L50.8437 62.1426L50.2232 62.8065L42.5 71.07L34.7768 62.8065L34.1563 62.1426L33.248 62.1733L21.9437 62.5553L22.3257 51.251L22.3564 50.3428L21.6925 49.7223L13.429 41.999L21.6925 34.2758L22.3564 33.6553L22.3257 32.7471L21.9437 21.4427L33.248 21.8248L34.1563 21.8555L34.7768 21.1916L42.5 12.9281Z" fill="white" stroke="#C28F0F" stroke-width="4"/>
<path d="M41.9827 35.0273C43.6467 33.1206 45.1607 31.6073 44.45 30.8406C43.7394 30.0739 32.242 34.3426 32.8907 35.4573C33.2774 36.1213 43.55 43.5766 44.5634 44.1759C45.7534 44.8799 47.6654 44.0559 47.4967 42.7466L45.9454 30.7393C45.9454 30.7393 46.7307 31.7939 46.9734 32.5226M49.8894 43.6706C49.7214 42.3619 48.338 31.6626 48.338 31.6626C48.338 31.6626 49.1234 32.7173 49.366 33.4466" stroke="#3BB349" stroke-width="1.25" stroke-linecap="round" stroke-linejoin="round"/>
<path d="M45.422 48.5791C45.422 44.4338 44.0287 35.2384 44.0287 35.2384C44.0287 35.2384 44.814 36.2924 45.0574 37.0218M41.2134 35.6971C40.9707 34.9678 40.186 33.9131 40.186 33.9131C40.186 33.9131 40.5814 38.7184 42.88 39.6718C36.716 36.6858 33.782 46.4571 31.1187 43.5971C29.218 41.5571 32.632 38.6904 32.632 38.6904" stroke="#3BB349" stroke-width="1.25" stroke-linecap="round" stroke-linejoin="round"/>
<path d="M51.7774 35.3524C51.534 34.6237 50.7494 33.5691 50.7494 33.5691C50.7494 33.5691 52.1 45.4991 52.388 48.5791C52.5247 50.0464 49.8054 50.7191 48.796 48.2524C47.7867 45.7857 48.712 45.0837 49.3287 45.0837C49.9454 45.0837 50.9554 47.1397 49.3287 48.0931C47.702 49.0464 44.992 49.7384 44.17 50.6911C43.348 51.6437 41.908 53.8311 40.9547 53.8311C40.0014 53.8311 38.1327 52.8037 40.2634 48.5791M54.1327 46.7657C53.964 44.5791 52.824 35.7191 52.824 35.7191C52.824 35.7191 53.6094 36.7731 53.852 37.5024M35.8287 31.9617C36.978 31.2464 39.3474 30.7984 40.5814 29.8311M32.4874 44.1277C30.9547 45.8124 31.3847 49.2324 33.18 48.6724C33.85 48.4631 34.6567 47.0697 36.002 46.4671C38.26 45.4564 41.148 44.9404 40.974 43.3271C40.75 41.2431 38.75 40.0304 38.75 40.0304" stroke="#3BB349" stroke-width="1.25" stroke-linecap="round" stroke-linejoin="round"/>
<path d="M43.712 45.3449C42.754 44.9216 42.4407 44.4336 42.4407 44.4336C43.2167 46.1669 43.8147 47.2229 43.834 48.0549C43.8533 48.8869 39.5627 51.5456 37.7207 51.5456C35.5767 51.5456 34.0073 50.0043 34.6167 47.4456M33.2567 35.8223C31.8473 36.4756 30.9733 39.5669 32.048 39.2549" stroke="#3BB349" stroke-width="1.25" stroke-linecap="round" stroke-linejoin="round"/>
<path d="M42.5 56.3327C50.416 56.3327 56.8333 49.9154 56.8333 41.9993C56.8333 34.0833 50.416 27.666 42.5 27.666C34.5839 27.666 28.1666 34.0833 28.1666 41.9993C28.1666 49.9154 34.5839 56.3327 42.5 56.3327Z" stroke="#3BB349" stroke-width="1.25" stroke-linecap="round" stroke-linejoin="round"/>
</g>
<defs>
<filter id="filter0_d_73_9203" x="0.5" y="-0.000976562" width="84" height="84" filterUnits="userSpaceOnUse" color-interpolation-filters="sRGB">
<feFlood flood-opacity="0" result="BackgroundImageFix"/>
<feColorMatrix in="SourceAlpha" type="matrix" values="0 0 0 0 0 0 0 0 0 0 0 0 0 0 0 0 0 0 127 0" result="hardAlpha"/>
<feOffset/>
<feGaussianBlur stdDeviation="5"/>
<feComposite in2="hardAlpha" operator="out"/>
<feColorMatrix type="matrix" values="0 0 0 0 0 0 0 0 0 0 0 0 0 0 0 0 0 0 0.07 0"/>
<feBlend mode="normal" in2="BackgroundImageFix" result="effect1_dropShadow_73_9203"/>
<feBlend mode="normal" in="SourceGraphic" in2="effect1_dropShadow_73_9203" result="shape"/>
</filter>
</defs>
</svg>
