<svg width="85" height="84" viewBox="0 0 85 84" fill="none" xmlns="http://www.w3.org/2000/svg">
<g filter="url(#filter0_d_73_9266)">
<path d="M42.5 12.9281L50.2232 21.1916L50.8437 21.8555L51.752 21.8248L63.0563 21.4427L62.6743 32.7471L62.6436 33.6553L63.3075 34.2758L71.571 41.999L63.3075 49.7223L62.6436 50.3428L62.6743 51.251L63.0563 62.5553L51.752 62.1733L50.8437 62.1426L50.2232 62.8065L42.5 71.07L34.7768 62.8065L34.1563 62.1426L33.248 62.1733L21.9437 62.5553L22.3257 51.251L22.3564 50.3428L21.6925 49.7223L13.429 41.999L21.6925 34.2758L22.3564 33.6553L22.3257 32.7471L21.9437 21.4427L33.248 21.8248L34.1563 21.8555L34.7768 21.1916L42.5 12.9281Z" fill="white" stroke="#C28F0F" stroke-width="4"/>
<path d="M36.036 30.0152C37.1453 29.1512 38.596 28.6738 40.0373 28.6738C40.9 28.6738 41.5973 28.9698 42.1266 29.4405C42.2693 29.5672 42.396 29.7045 42.5093 29.8458C42.6226 29.7045 42.7493 29.5672 42.892 29.4405C43.4213 28.9698 44.1186 28.6738 44.9813 28.6738C46.4226 28.6738 47.8746 29.1512 48.9813 30.0152C49.8453 30.6858 50.5213 31.6125 50.7866 32.7312C51.3466 32.8245 51.844 33.1098 52.2466 33.4872C52.8866 34.0885 53.344 34.9578 53.6306 35.8525C53.9226 36.7605 54.068 37.7805 54.024 38.7605C54.0013 39.2618 53.928 39.7738 53.788 40.2632L53.8746 40.3032C54.368 40.5352 54.768 40.8992 55.068 41.3832C55.6346 42.2965 55.8346 43.6112 55.8346 45.2872C55.8346 47.2138 55.0973 48.5218 54.1506 49.3338C53.6576 49.7567 53.0804 50.0703 52.4573 50.2538C52.2312 51.2958 51.7666 52.2711 51.1 53.1032C50.136 54.3085 48.6373 55.3272 46.624 55.3272C45.0106 55.3272 43.74 54.4338 42.924 53.5805C42.7793 53.428 42.6413 53.2692 42.5106 53.1045C42.3795 53.2687 42.2411 53.4271 42.096 53.5792C41.28 54.4352 40.0093 55.3272 38.396 55.3272C36.3813 55.3272 34.8826 54.3085 33.92 53.1032C33.2523 52.2714 32.7868 51.296 32.56 50.2538C31.9373 50.0701 31.3606 49.7566 30.868 49.3338C29.9213 48.5205 29.1853 47.2138 29.1853 45.2872C29.1853 43.6112 29.3853 42.2965 29.9506 41.3832C30.2506 40.8859 30.698 40.4944 31.2306 40.2632C31.0936 39.7732 31.0144 39.2689 30.9946 38.7605C30.9506 37.7805 31.096 36.7605 31.388 35.8525C31.6746 34.9592 32.1306 34.0885 32.772 33.4872C33.1731 33.0962 33.6812 32.8331 34.232 32.7312C34.4986 31.6112 35.1733 30.6858 36.036 30.0152ZM37.2653 31.5925C36.5373 32.1592 36.1106 32.9138 36.1106 33.7832C36.1105 33.9415 36.0728 34.0976 36.0005 34.2385C35.9283 34.3795 35.8236 34.5012 35.6951 34.5938C35.5666 34.6864 35.418 34.7471 35.2614 34.771C35.1049 34.7948 34.9449 34.7812 34.7946 34.7312C34.612 34.6698 34.4186 34.6845 34.1413 34.9458C33.832 35.2352 33.5186 35.7592 33.292 36.4632C33.0652 37.1763 32.9642 37.9234 32.9933 38.6712C33.0266 39.4125 33.2026 40.0285 33.48 40.4445C33.5259 40.5134 33.563 40.5878 33.5906 40.6658H35.0333C35.9933 40.6656 36.9177 41.0287 37.6209 41.6822C38.3241 42.3357 38.7539 43.2311 38.824 44.1885C39.3983 44.4177 39.8752 44.8394 40.173 45.3814C40.4707 45.9234 40.5708 46.5521 40.4561 47.1598C40.3414 47.7674 40.0191 48.3164 39.5443 48.7126C39.0695 49.1089 38.4718 49.3278 37.8534 49.3319C37.235 49.336 36.6344 49.125 36.1544 48.7351C35.6744 48.3452 35.3448 47.8006 35.2221 47.1945C35.0993 46.5884 35.1911 45.9585 35.4816 45.4125C35.7721 44.8666 36.2434 44.4386 36.8146 44.2018C36.7513 43.7747 36.5366 43.3846 36.2096 43.1026C35.8826 42.8207 35.4651 42.6656 35.0333 42.6658H31.5333C31.3333 43.1298 31.1853 43.9312 31.1853 45.2872C31.1853 46.6485 31.68 47.3952 32.1706 47.8165C32.708 48.2765 33.2986 48.3965 33.4693 48.3965C33.7345 48.3965 33.9889 48.5019 34.1764 48.6894C34.3639 48.8769 34.4693 49.1313 34.4693 49.3965C34.4693 49.9565 34.7786 50.9738 35.4826 51.8538C36.16 52.7032 37.1253 53.3272 38.396 53.3272C39.2453 53.3272 40.0266 52.8498 40.6493 52.1992C40.9506 51.8818 41.1853 51.5525 41.34 51.2858C41.3985 51.1861 41.4497 51.0823 41.4933 50.9752L41.5013 50.9565V38.3325H40.3066C40.0746 38.9062 39.6502 39.3813 39.1062 39.6764C38.5623 39.9715 37.9326 40.0683 37.3252 39.9501C36.7177 39.8318 36.1703 39.506 35.7767 39.0285C35.3831 38.5509 35.1679 37.9513 35.1679 37.3325C35.1679 36.7136 35.3831 36.1141 35.7767 35.6365C36.1703 35.1589 36.7177 34.8331 37.3252 34.7149C37.9326 34.5967 38.5623 34.6935 39.1062 34.9886C39.6502 35.2837 40.0746 35.7588 40.3066 36.3325H41.5013V32.9485L41.4973 32.8725C41.4745 32.4619 41.3937 32.0565 41.2573 31.6685C41.1373 31.3485 40.9813 31.0992 40.7973 30.9352C40.6333 30.7885 40.4066 30.6738 40.0373 30.6738C39.016 30.6738 38.004 31.0178 37.264 31.5938M43.5186 48.6658V50.9565L43.5253 50.9752C43.552 51.0458 43.6026 51.1512 43.68 51.2858C43.8333 51.5525 44.068 51.8818 44.3706 52.1992C44.992 52.8498 45.7746 53.3272 46.624 53.3272C47.8933 53.3272 48.8586 52.7032 49.5373 51.8538C50.24 50.9738 50.5506 49.9552 50.5506 49.3965C50.5506 49.1313 50.656 48.8769 50.8435 48.6894C51.0311 48.5019 51.2854 48.3965 51.5506 48.3965C51.7213 48.3965 52.3106 48.2765 52.8493 47.8165C53.3386 47.3952 53.8333 46.6485 53.8333 45.2872C53.8333 43.6765 53.6226 42.8472 53.368 42.4378C53.2883 42.2963 53.1673 42.1823 53.0213 42.1112C52.8866 42.0472 52.684 41.9992 52.3706 41.9992C52.1896 41.9991 52.0121 41.95 51.8568 41.857C51.7015 41.764 51.5744 41.6306 51.489 41.471C51.4036 41.3114 51.3631 41.1317 51.3719 40.9509C51.3806 40.7701 51.4382 40.5951 51.5386 40.4445C51.816 40.0285 51.992 39.4125 52.0266 38.6712C52.0553 37.9233 51.9538 37.1762 51.7266 36.4632C51.5 35.7592 51.1866 35.2365 50.8786 34.9458C50.6 34.6845 50.4066 34.6698 50.2253 34.7312C50.075 34.7815 49.9148 34.7953 49.7581 34.7716C49.6014 34.7478 49.4525 34.6871 49.3239 34.5945C49.1952 34.5019 49.0904 34.3801 49.0181 34.239C48.9458 34.0979 48.908 33.9417 48.908 33.7832C48.908 32.9138 48.4813 32.1592 47.7533 31.5925C47.016 31.0178 46.0026 30.6725 44.98 30.6725C44.612 30.6725 44.3866 30.7885 44.2213 30.9338C44.0126 31.1385 43.8554 31.3899 43.7626 31.6672C43.6131 32.0784 43.5307 32.5111 43.5186 32.9485V46.6658H44.3666C44.844 46.6658 45.3019 46.4762 45.6394 46.1386C45.977 45.8011 46.1666 45.3432 46.1666 44.8658V42.4725C45.5929 42.2404 45.1178 41.8161 44.8227 41.2721C44.5276 40.7282 44.4309 40.0985 44.5491 39.491C44.6673 38.8836 44.9931 38.3362 45.4706 37.9426C45.9482 37.549 46.5478 37.3338 47.1666 37.3338C47.7855 37.3338 48.3851 37.549 48.8626 37.9426C49.3402 38.3362 49.666 38.8836 49.7842 39.491C49.9024 40.0985 49.8057 40.7282 49.5106 41.2721C49.2154 41.8161 48.7403 42.2404 48.1666 42.4725V44.8658C48.1666 45.8736 47.7663 46.8402 47.0536 47.5528C46.341 48.2655 45.3745 48.6658 44.3666 48.6658H43.5186ZM37.8333 36.6658C37.6565 36.6658 37.4869 36.7361 37.3619 36.8611C37.2369 36.9861 37.1666 37.1557 37.1666 37.3325C37.1666 37.5093 37.2369 37.6789 37.3619 37.8039C37.4869 37.9289 37.6565 37.9992 37.8333 37.9992C38.0101 37.9992 38.1797 37.9289 38.3047 37.8039C38.4297 37.6789 38.5 37.5093 38.5 37.3325C38.5 37.1557 38.4297 36.9861 38.3047 36.8611C38.1797 36.7361 38.0101 36.6658 37.8333 36.6658ZM37.1666 46.6658C37.1666 46.8426 37.2369 47.0122 37.3619 47.1372C37.4869 47.2623 37.6565 47.3325 37.8333 47.3325C38.0101 47.3325 38.1797 47.2623 38.3047 47.1372C38.4297 47.0122 38.5 46.8426 38.5 46.6658C38.5 46.489 38.4297 46.3194 38.3047 46.1944C38.1797 46.0694 38.0101 45.9992 37.8333 45.9992C37.6565 45.9992 37.4869 46.0694 37.3619 46.1944C37.2369 46.3194 37.1666 46.489 37.1666 46.6658ZM46.5 39.9992C46.5 40.176 46.5702 40.3455 46.6952 40.4706C46.8203 40.5956 46.9898 40.6658 47.1666 40.6658C47.3434 40.6658 47.513 40.5956 47.638 40.4706C47.7631 40.3455 47.8333 40.176 47.8333 39.9992C47.8333 39.8224 47.7631 39.6528 47.638 39.5278C47.513 39.4027 47.3434 39.3325 47.1666 39.3325C46.9898 39.3325 46.8203 39.4027 46.6952 39.5278C46.5702 39.6528 46.5 39.8224 46.5 39.9992Z" fill="#3BB349"/>
</g>
<defs>
<filter id="filter0_d_73_9266" x="0.5" y="-0.000976562" width="84" height="84" filterUnits="userSpaceOnUse" color-interpolation-filters="sRGB">
<feFlood flood-opacity="0" result="BackgroundImageFix"/>
<feColorMatrix in="SourceAlpha" type="matrix" values="0 0 0 0 0 0 0 0 0 0 0 0 0 0 0 0 0 0 127 0" result="hardAlpha"/>
<feOffset/>
<feGaussianBlur stdDeviation="5"/>
<feComposite in2="hardAlpha" operator="out"/>
<feColorMatrix type="matrix" values="0 0 0 0 0 0 0 0 0 0 0 0 0 0 0 0 0 0 0.07 0"/>
<feBlend mode="normal" in2="BackgroundImageFix" result="effect1_dropShadow_73_9266"/>
<feBlend mode="normal" in="SourceGraphic" in2="effect1_dropShadow_73_9266" result="shape"/>
</filter>
</defs>
</svg>
